# xmcd
#
# Track frame offsets: 
#        150
#        12530
#        24913
#        35959
#        47212
#        74566
#        85808
#        94469
#        107852
#        119989
#        131928
#        145316
#
# Disc length: 2109 seconds
#
# Revision: 4
# Processed by: cddbd v1.5.2PL0 Copyright (c) Steve Scherf et al.
# Submitted via: ExactAudioCopy v0.99pb5
#
DISCID=c0083b0c
DTITLE=Various Artist - The Velvet Lounge Late At Night: Volume 1
DYEAR=2002
DGENRE=Blues
TTITLE0=Nat King Cole and His Trio - Caravan
TTITLE1=Count Basie and Sarah Vaughan - The Gentleman Is A Dope
TTITLE2=Louis Prima - Oh Marie
TTITLE3=June Christy - You Took Advantage Of Me
TTITLE4=Lou Rawls and Les McCann Ltd - Willow Weeps For Me
TTITLE5=Peggy Lee - Till There Was You
TTITLE6=Bobby Darin - I Got Rythm
TTITLE7=Nancy Wilson with Hank Jones - In A Sentimental Mood
TTITLE8=Joe Williams - Alright, Okay, You Win
TTITLE9=Kay Starr - More Than You Know
TTITLE10=Mel Torme - Heart And Soul
TTITLE11=Julie London - When I Grow Too Old To Dream
EXTD=
EXTT0=
EXTT1=
EXTT2=
EXTT3=
EXTT4=
EXTT5=
EXTT6=
EXTT7=
EXTT8=
EXTT9=
EXTT10=
EXTT11=
PLAYORDER=
